<svg
          width="228"
          height="55"
          viewBox="0 0 228 55"
          fill="none"
          xmlns="http://www.w3.org/2000/svg"
        >
          <g clip-path="url(#clip0_3105_1660)">
            <path
              d="M25.83 5.85C24.35 2.37 22.09 1 18.69 1C13.95 1 9.84999 4.63 9.84999 9.66C9.84999 11.66 10.59 13.73 12.14 14.54C12.51 14.73 12.73 15.17 12.07 15.09C9.10999 14.79 6.73999 12.61 6.73999 9.32C6.72999 3.29 13.84 0 18.87 0C25.49 0 29.79 3.63 31.34 10.73L33.26 19.69L46.43 4.41C48.06 2.52 48.58 2.15 51.09 1.97L54.49 1.71C55.05 1.67 55.42 1.67 55.42 1.9C55.42 2.13 55.31 2.23 54.42 2.31C51.76 2.57 50.87 3.57 50.72 5.83L49.91 18.41L49.76 21.04C49.72 22.67 50.28 23.04 51.31 23.04C51.94 23.04 52.64 22.82 53.42 22.52C53.75 22.37 54.01 22.37 54.09 22.56C54.16 22.71 53.98 22.93 53.68 23.04C51.79 23.96 49.83 24.67 48.5 24.67C46.46 24.67 45.43 23.75 45.61 21.04L45.83 18.41L46.5 6.72L31.51 24.07C31.1 24.51 30.77 24.85 30.59 24.85C30.41 24.85 30.29 24.52 30.15 23.85L26.86 9.23C26.71 8.68 26.6 8.16 26.45 7.68L20.6 15.75C13.57 25.48 9.56999 29.18 4.86999 29.18C1.75999 29.18 -0.0100098 27.26 -0.0100098 24.89C-0.0100098 23.85 0.20999 23.04 0.54999 22.26C0.80999 21.63 1.21999 21.71 1.17999 22.37C0.95999 24.48 2.84999 26.26 5.57999 26.26C9.31999 26.26 12.65 23.74 19.42 14.57L25.82 5.87L25.83 5.85Z"
              fill="black"
            />
            <path
              d="M75.93 10.66C75.93 9.73001 75.82 9.18001 75.63 8.81001C75.19 8.07001 74.11 7.74001 73.34 7.74001C73.01 7.74001 72.67 7.70001 72.67 7.48001C72.67 7.30001 72.89 7.26001 73.26 7.26001C74.55 7.26001 75.74 7.33001 76.81 7.33001C77.88 7.33001 78.88 7.26001 80.33 7.26001C80.7 7.26001 80.92 7.30001 80.92 7.48001C80.92 7.70001 80.51 7.74001 80.22 7.74001C79.44 7.78001 78.37 8.07001 77.96 8.81001C77.74 9.18001 77.66 9.73001 77.66 10.66V14.91C77.66 19.46 74.51 22.35 68.85 22.35C64.08 22.35 60.01 20.13 60.01 14.95V10.66C60.01 9.73001 59.9 9.18001 59.68 8.81001C59.2 8.07001 58.27 7.74001 57.39 7.74001C57.13 7.74001 56.72 7.70001 56.72 7.48001C56.72 7.30001 56.94 7.26001 57.35 7.26001C58.87 7.26001 60.38 7.33001 61.79 7.33001C63.2 7.33001 64.82 7.26001 66.27 7.26001C66.64 7.26001 66.86 7.30001 66.86 7.48001C66.86 7.70001 66.45 7.74001 66.19 7.74001C65.45 7.78001 64.34 8.04001 63.9 8.81001C63.71 9.18001 63.6 9.59001 63.6 10.66V14.95C63.6 19.17 66.52 20.76 69.74 20.76C73.14 20.76 75.92 19.02 75.92 14.91V10.66H75.93Z"
              fill="black"
            />
            <path
              d="M83.6899 7.73C83.2799 7.69 82.9499 7.66 82.9499 7.47C82.9499 7.28 83.2099 7.25 83.5799 7.25C85.2499 7.25 86.3499 7.29 88.1699 7.29C89.8399 7.29 91.7999 7.25 93.9399 7.25C96.8999 7.25 102.15 7.47 102.15 11.43C102.15 14.06 99.9999 15.13 97.6399 15.54C98.1899 15.8 98.6799 16.32 99.2699 17.13C101.75 20.53 103.27 21.68 105.49 21.68C106.08 21.68 106.05 22.05 105.53 22.09C105.12 22.16 104.49 22.24 103.16 22.24C99.5299 22.24 98.6099 22.17 94.9499 17.24C93.9499 15.87 93.3199 15.8 92.7999 15.76H90.0999C89.8399 15.76 89.7999 15.87 89.7999 16.13V18.68C89.7999 21.38 91.0899 21.57 92.3899 21.6C92.7999 21.64 93.0899 21.64 93.0899 21.86C93.0899 22.05 92.8699 22.08 92.4999 22.08C90.9099 22.08 89.5399 22.04 88.0599 22.04C86.5799 22.04 85.0999 22.08 83.5099 22.08C83.1399 22.08 82.8799 22.04 82.8799 21.86C82.8799 21.64 83.2099 21.6 83.5799 21.6C84.8699 21.53 86.2099 21.42 86.2099 18.68V10.69C86.2099 7.99 84.9499 7.77 83.6899 7.73ZM94.1999 14.69C96.4199 14.69 98.1999 13.69 98.1999 11.43C98.1999 8.88 96.4199 8.29 94.1999 8.29H92.2799C89.8799 8.29 89.7999 8.33 89.7999 10.66V14.43C89.7999 14.62 89.8699 14.69 90.0999 14.69H94.2099H94.1999Z"
              fill="black"
            />
            <path
              d="M128.13 10.73L121.73 21.61C121.4 22.2 121.21 22.42 121.06 22.42C120.91 22.42 120.76 22.16 120.47 21.64L114.18 10.87L111.52 18.9C111.37 19.42 111.26 19.82 111.26 20.19C111.26 21.19 111.96 21.63 113.37 21.63C113.74 21.63 113.96 21.67 113.96 21.85C113.96 22 113.78 22.07 113.41 22.07C112.04 22.07 111.23 22.03 109.93 22.03C108.71 22.03 107.6 22.07 106.45 22.07C106.08 22.07 105.93 22 105.93 21.85C105.93 21.7 106.12 21.63 106.45 21.63C108.19 21.63 109 20.74 109.74 18.41L112.44 10.01C112.59 9.52999 112.66 9.15999 112.66 8.82999C112.66 8.01999 112.1 7.67999 110.7 7.67999C110.26 7.67999 110.14 7.60999 110.14 7.45999C110.14 7.34999 110.25 7.23999 110.66 7.23999H114.55C115.84 7.23999 116.18 7.41999 116.77 8.41999L122.02 17.78L127.64 8.15999C128.08 7.41999 128.64 7.23999 129.56 7.23999H133.48C133.85 7.23999 134.04 7.27999 134.04 7.45999C134.04 7.60999 133.85 7.71999 133.45 7.71999C131.97 7.71999 131.38 7.93999 131.38 8.71999C131.38 9.04999 131.49 9.45999 131.68 10.01L134.53 18.56C135.16 20.45 135.75 21.63 137.64 21.63C138.05 21.63 138.23 21.67 138.23 21.85C138.23 22 138.04 22.07 137.64 22.07C136.05 22.07 135.01 22.03 133.61 22.03C132.21 22.03 130.84 22.07 129.06 22.07C128.58 22.07 128.47 22 128.47 21.85C128.47 21.74 128.58 21.63 129.1 21.63C130.88 21.63 131.51 20.89 130.99 19.26L128.14 10.71L128.13 10.73Z"
              fill="black"
            />
            <path
              d="M157.33 10.66C157.33 9.73001 157.22 9.18001 157.03 8.81001C156.59 8.07001 155.51 7.74001 154.74 7.74001C154.41 7.74001 154.07 7.70001 154.07 7.48001C154.07 7.30001 154.29 7.26001 154.66 7.26001C155.96 7.26001 157.14 7.33001 158.21 7.33001C159.28 7.33001 160.28 7.26001 161.73 7.26001C162.1 7.26001 162.32 7.30001 162.32 7.48001C162.32 7.70001 161.91 7.74001 161.62 7.74001C160.84 7.78001 159.77 8.07001 159.36 8.81001C159.14 9.18001 159.06 9.73001 159.06 10.66V14.91C159.06 19.46 155.92 22.35 150.25 22.35C145.48 22.35 141.41 20.13 141.41 14.95V10.66C141.41 9.73001 141.3 9.18001 141.08 8.81001C140.6 8.07001 139.67 7.74001 138.79 7.74001C138.53 7.74001 138.12 7.70001 138.12 7.48001C138.12 7.30001 138.34 7.26001 138.75 7.26001C140.27 7.26001 141.78 7.33001 143.19 7.33001C144.6 7.33001 146.22 7.26001 147.67 7.26001C148.04 7.26001 148.26 7.30001 148.26 7.48001C148.26 7.70001 147.85 7.74001 147.59 7.74001C146.85 7.78001 145.74 8.04001 145.3 8.81001C145.11 9.18001 145 9.59001 145 10.66V14.95C145 19.17 147.92 20.76 151.14 20.76C154.54 20.76 157.32 19.02 157.32 14.91V10.66H157.33Z"
              fill="black"
            />
            <path
              d="M165.09 7.73C164.68 7.69 164.35 7.66 164.35 7.47C164.35 7.28 164.61 7.25 164.98 7.25C166.65 7.25 167.76 7.29 169.57 7.29C171.24 7.29 173.2 7.25 175.34 7.25C178.3 7.25 183.55 7.47 183.55 11.43C183.55 14.06 181.4 15.13 179.04 15.54C179.6 15.8 180.08 16.32 180.67 17.13C183.15 20.53 184.67 21.68 186.89 21.68C187.48 21.68 187.44 22.05 186.93 22.09C186.52 22.16 185.89 22.24 184.56 22.24C180.93 22.24 180.01 22.17 176.35 17.24C175.35 15.87 174.72 15.8 174.2 15.76H171.5C171.24 15.76 171.2 15.87 171.2 16.13V18.68C171.2 21.38 172.5 21.57 173.79 21.6C174.2 21.64 174.49 21.64 174.49 21.86C174.49 22.05 174.27 22.08 173.9 22.08C172.31 22.08 170.94 22.04 169.46 22.04C167.98 22.04 166.5 22.08 164.91 22.08C164.54 22.08 164.28 22.04 164.28 21.86C164.28 21.64 164.61 21.6 164.98 21.6C166.27 21.53 167.61 21.42 167.61 18.68V10.69C167.61 7.99 166.35 7.77 165.09 7.73ZM175.6 14.69C177.82 14.69 179.6 13.69 179.6 11.43C179.6 8.88 177.82 8.29 175.6 8.29H173.68C171.27 8.29 171.2 8.33 171.2 10.66V14.43C171.2 14.62 171.27 14.69 171.5 14.69H175.61H175.6Z"
              fill="black"
            />
            <path
              d="M197.65 22.09C196.21 22.09 195.06 22.05 193.58 22.05C191.84 22.05 190.69 22.09 189.58 22.09C189.21 22.09 189.03 22.02 189.03 21.87C189.03 21.72 189.21 21.65 189.58 21.65C190.17 21.65 191.25 21.39 191.58 20.8C191.73 20.54 191.8 20.17 191.8 19.54V9.92C191.8 9.22 191.76 8.81 191.58 8.55C191.25 7.92 190.17 7.7 189.58 7.7C189.21 7.7 189.03 7.63 189.03 7.48C189.03 7.33 189.21 7.26 189.58 7.26C190.65 7.26 191.8 7.3 193.58 7.3C194.58 7.3 195.95 7.26 197.06 7.26H204.5C205.98 7.26 206.05 7 206.35 7C206.61 7 206.68 7.07 206.61 7.52L206.2 10.89C206.13 11.3 205.76 11.33 205.72 10.89C205.39 8.52 204.28 8.48 201.83 8.48H197.28C195.8 8.48 195.39 8.81 195.39 10.26V13.37C195.39 13.63 195.46 13.7 195.72 13.7H200.38C201.9 13.7 202.67 12.85 202.75 11.96C202.79 11.63 202.9 11.44 203.05 11.44C203.2 11.44 203.27 11.63 203.27 11.96C203.27 12.59 203.2 13.63 203.2 14.33C203.2 15.03 203.27 16.03 203.27 16.66C203.27 17.03 203.2 17.18 203.05 17.18C202.9 17.18 202.79 17.03 202.75 16.66C202.68 15.81 201.9 14.96 200.38 14.96H195.72C195.42 14.96 195.39 15.07 195.39 15.26V18.18C195.39 20.36 195.87 20.85 198.5 20.85H200.94C204.27 20.85 205.86 19.92 206.86 17.74C207.01 17.37 207.42 17.48 207.34 17.85L206.6 20.26C206.08 22 205.86 22.11 204.16 22.11H197.65V22.09Z"
              fill="black"
            />
            <path
              d="M226.44 11.25C226.48 11.69 226.07 11.77 225.92 11.29C225.22 8.80999 222.37 8.25999 219.63 8.25999C216.52 8.25999 214.67 8.99999 214.67 10.41C214.67 14.07 227.81 11.22 227.81 17.59C227.81 21.18 223.67 22.36 219.19 22.36C215.3 22.36 213.9 21.66 212.68 21.32C212.09 21.21 212.27 21.58 212.01 21.58C211.83 21.58 211.64 21.47 211.6 20.8L211.19 17.06C211.15 16.91 211.26 16.76 211.41 16.76C211.59 16.76 211.59 16.91 211.67 17.09C213.08 20.53 216.63 21.05 219.18 21.05C222.58 21.05 224.84 20.16 224.84 18.57C224.84 14.43 211.67 17.9 211.67 11.43C211.67 7.68999 216.22 6.98999 219.63 6.98999C222.52 6.98999 223.59 7.35999 225.18 7.72999C225.74 7.87999 225.59 7.46999 225.88 7.46999C226.07 7.46999 226.18 7.57999 226.21 8.46999L226.43 11.25H226.44Z"
              fill="black"
            />
            <path
              d="M22.6799 54.09C21.7199 54.09 19.8699 54.05 18.7899 54.05C17.1199 54.05 16.0099 54.09 14.9399 54.09C14.5699 54.09 14.3799 54.02 14.3799 53.87C14.3799 53.72 14.5699 53.65 14.9399 53.65C15.5299 53.65 16.6099 53.39 16.9399 52.8C17.0899 52.54 17.1599 52.17 17.1599 51.54V41.92C17.1599 41.22 17.1199 40.81 16.9399 40.55C16.6099 39.92 15.5299 39.7 14.9399 39.7C14.5699 39.7 14.3799 39.63 14.3799 39.48C14.3799 39.33 14.5699 39.26 14.9399 39.26C16.3099 39.26 17.1199 39.3 18.7899 39.3C19.8599 39.3 21.2699 39.26 22.4199 39.26H26.3099C31.3799 39.26 37.2599 40.96 37.2599 46.51C37.2599 52.06 32.1199 54.1 26.3099 54.1H22.6799V54.09ZM26.0499 52.98C30.7099 52.98 33.1199 50.54 33.1199 46.54C33.1199 42.14 30.0899 40.36 26.0499 40.36H22.1299C20.8399 40.36 20.7199 40.47 20.7199 41.58V50.65C20.7199 52.69 20.8699 52.94 23.4999 52.98H26.0499Z"
              fill="black"
            />
            <path
              d="M49.1 54.09C47.66 54.09 46.51 54.05 45.03 54.05C43.29 54.05 42.14 54.09 41.03 54.09C40.66 54.09 40.47 54.02 40.47 53.87C40.47 53.72 40.66 53.65 41.03 53.65C41.62 53.65 42.7 53.39 43.03 52.8C43.18 52.54 43.25 52.17 43.25 51.54V41.92C43.25 41.22 43.21 40.81 43.03 40.55C42.7 39.92 41.62 39.7 41.03 39.7C40.66 39.7 40.47 39.63 40.47 39.48C40.47 39.33 40.66 39.26 41.03 39.26C42.1 39.26 43.25 39.3 45.03 39.3C46.03 39.3 47.4 39.26 48.51 39.26H55.95C57.43 39.26 57.5 39 57.8 39C58.06 39 58.13 39.07 58.06 39.52L57.65 42.89C57.58 43.3 57.21 43.33 57.17 42.89C56.84 40.52 55.73 40.48 53.28 40.48H48.73C47.25 40.48 46.84 40.81 46.84 42.26V45.37C46.84 45.63 46.91 45.7 47.17 45.7H51.83C53.35 45.7 54.12 44.85 54.2 43.96C54.24 43.63 54.35 43.44 54.5 43.44C54.65 43.44 54.72 43.63 54.72 43.96C54.72 44.59 54.65 45.63 54.65 46.33C54.65 47.03 54.72 48.03 54.72 48.66C54.72 49.03 54.65 49.18 54.5 49.18C54.35 49.18 54.24 49.03 54.2 48.66C54.13 47.81 53.35 46.96 51.83 46.96H47.17C46.87 46.96 46.84 47.07 46.84 47.26V50.18C46.84 52.36 47.32 52.85 49.95 52.85H52.39C55.72 52.85 57.31 51.92 58.31 49.74C58.46 49.37 58.87 49.48 58.79 49.85L58.05 52.26C57.53 54 57.31 54.11 55.61 54.11H49.1V54.09Z"
              fill="black"
            />
            <path
              d="M77.8901 43.25C77.9301 43.69 77.5201 43.77 77.3701 43.29C76.6701 40.81 73.8201 40.26 71.0801 40.26C67.9701 40.26 66.1201 41 66.1201 42.41C66.1201 46.07 79.2601 43.22 79.2601 49.59C79.2601 53.18 75.1201 54.36 70.6401 54.36C66.7501 54.36 65.3501 53.66 64.1301 53.32C63.5401 53.21 63.7201 53.58 63.4601 53.58C63.2801 53.58 63.0901 53.47 63.0501 52.8L62.6401 49.06C62.6001 48.91 62.7101 48.76 62.8601 48.76C63.0501 48.76 63.0501 48.91 63.1201 49.09C64.5301 52.53 68.0801 53.05 70.6301 53.05C74.0301 53.05 76.2901 52.16 76.2901 50.57C76.2901 46.43 63.1201 49.9 63.1201 43.43C63.1201 39.69 67.6701 38.99 71.0801 38.99C73.9701 38.99 75.0401 39.36 76.6301 39.73C77.1801 39.88 77.0401 39.47 77.3301 39.47C77.5201 39.47 77.6301 39.58 77.6601 40.47L77.8801 43.25H77.8901Z"
              fill="black"
            />
            <path
              d="M93.9101 42.8C93.2101 41.62 91.9101 39.73 90.3901 39.73C90.0601 39.73 89.8401 39.62 89.8401 39.43C89.8401 39.28 90.0601 39.25 90.3901 39.25C91.6501 39.25 92.8301 39.29 94.0901 39.29C95.3501 39.29 96.6101 39.25 97.8301 39.25C98.2001 39.25 98.4201 39.29 98.4201 39.47C98.4201 39.58 98.2001 39.73 97.8601 39.73C97.1601 39.73 96.6401 39.92 96.6401 40.51C96.6401 40.77 96.7501 41.1 97.0101 41.55L102.12 49.99L107 41.66C107.26 41.22 107.41 40.85 107.41 40.51C107.41 40.03 107.08 39.73 106.26 39.73C105.93 39.73 105.67 39.62 105.67 39.47C105.67 39.32 105.86 39.25 106.19 39.25C107.19 39.25 108.08 39.29 109.08 39.29C110.08 39.29 111.15 39.25 112.15 39.25C112.48 39.25 112.63 39.32 112.63 39.43C112.63 39.58 112.41 39.73 112.11 39.73C110.59 39.73 109.93 40.36 108.63 42.54L101.82 53.79C101.6 54.2 101.41 54.34 101.3 54.34C101.19 54.34 101.04 54.16 100.78 53.79L93.9001 42.8H93.9101Z"
              fill="black"
            />
            <path
              d="M117.11 41.77C117.11 41.14 117.04 40.81 116.89 40.55C116.56 39.92 115.52 39.7 114.93 39.7C114.6 39.7 114.34 39.63 114.34 39.48C114.34 39.33 114.56 39.26 114.9 39.26C115.97 39.26 117.12 39.3 118.9 39.3C120.68 39.3 121.86 39.26 122.93 39.26C123.26 39.26 123.49 39.33 123.49 39.48C123.49 39.63 123.23 39.7 122.9 39.7C122.31 39.7 121.27 39.92 120.94 40.55C120.79 40.81 120.72 41.14 120.72 41.77V51.43C120.72 52.13 120.79 52.5 120.94 52.8C121.27 53.39 122.31 53.65 122.9 53.65C123.23 53.65 123.49 53.72 123.49 53.87C123.49 54.02 123.27 54.09 122.93 54.09C121.86 54.09 120.71 54.05 118.93 54.05C117.15 54.05 115.97 54.09 114.9 54.09C114.57 54.09 114.34 54.02 114.34 53.87C114.34 53.72 114.6 53.65 114.93 53.65C115.52 53.65 116.56 53.39 116.89 52.8C117.04 52.5 117.11 52.13 117.11 51.43V41.77Z"
              fill="black"
            />
            <path
              d="M146.93 51.91C146.93 54.13 140.9 54.35 138.97 54.35C132.83 54.35 126.65 52.2 126.65 46.65C126.65 41.1 132.87 38.99 139.05 38.99C142.9 38.99 144.3 39.62 145.49 39.92C145.64 39.96 145.75 39.96 145.93 39.96C146.11 39.96 146.19 39.81 146.37 39.81C146.7 39.81 146.7 40.07 146.7 41.03V44.18C146.7 44.44 146.66 44.62 146.52 44.62C146.33 44.62 146.26 44.43 146.26 44.18C146.26 41.37 143.74 40.04 139.04 40.04C134.34 40.04 131.05 42.63 131.05 46.7C131.05 50.77 134.45 53.29 139.04 53.29C140.37 53.29 143.37 53.18 143.37 51.85V49.82C143.37 48.04 142.37 47.78 141.15 47.78C140.63 47.78 140.52 47.67 140.52 47.56C140.52 47.38 140.78 47.34 141.08 47.34C142.19 47.34 143.37 47.38 145.11 47.38C146.85 47.38 148.07 47.34 149.14 47.34C149.55 47.34 149.7 47.41 149.7 47.56C149.7 47.71 149.55 47.75 149.14 47.78C148.21 47.85 147.44 48 147.1 48.63C146.99 48.85 146.91 49.33 146.91 49.96V51.92L146.93 51.91Z"
              fill="black"
            />
            <path
              d="M172.09 52.76C172.09 54.05 172.05 54.35 171.87 54.35C171.72 54.35 171.46 54.31 170.54 53.72L156.37 42.95V50.98C156.37 52.65 156.96 53.64 159 53.64C159.41 53.64 159.52 53.71 159.52 53.86C159.52 54.01 159.37 54.08 159.04 54.08C157.71 54.08 156.82 54.04 155.49 54.04C154.45 54.04 152.9 54.08 151.86 54.08C151.56 54.08 151.38 54.01 151.38 53.86C151.38 53.71 151.57 53.64 151.9 53.64C153.75 53.64 154.53 52.72 154.53 50.98V41.66C154.42 40.18 153.31 39.74 151.94 39.74C151.57 39.74 151.38 39.63 151.38 39.44C151.42 39.29 151.6 39.26 151.9 39.26H155.79C157.27 39.26 157.53 39.37 158.97 40.44L170.26 49.14V42.37C170.26 40.7 169.71 39.74 167.67 39.74C167.37 39.74 167.08 39.67 167.08 39.48C167.08 39.29 167.3 39.26 167.6 39.26C168.86 39.26 170.12 39.33 171.15 39.33C172.18 39.33 173.74 39.26 174.78 39.26C175.11 39.26 175.3 39.33 175.3 39.48C175.3 39.66 175.12 39.74 174.71 39.74C172.86 39.74 172.12 40.59 172.12 42.37V52.77L172.09 52.76Z"
              fill="black"
            />
            <path
              d="M186.74 54.09C185.3 54.09 184.15 54.05 182.67 54.05C180.93 54.05 179.78 54.09 178.67 54.09C178.3 54.09 178.12 54.02 178.12 53.87C178.12 53.72 178.3 53.65 178.67 53.65C179.26 53.65 180.34 53.39 180.67 52.8C180.82 52.54 180.89 52.17 180.89 51.54V41.92C180.89 41.22 180.85 40.81 180.67 40.55C180.34 39.92 179.26 39.7 178.67 39.7C178.3 39.7 178.12 39.63 178.12 39.48C178.12 39.33 178.3 39.26 178.67 39.26C179.74 39.26 180.89 39.3 182.67 39.3C183.67 39.3 185.04 39.26 186.15 39.26H193.59C195.07 39.26 195.14 39 195.44 39C195.7 39 195.77 39.07 195.7 39.52L195.29 42.89C195.22 43.3 194.85 43.33 194.81 42.89C194.48 40.52 193.37 40.48 190.92 40.48H186.37C184.89 40.48 184.48 40.81 184.48 42.26V45.37C184.48 45.63 184.55 45.7 184.81 45.7H189.47C190.99 45.7 191.76 44.85 191.84 43.96C191.88 43.63 191.99 43.44 192.14 43.44C192.29 43.44 192.36 43.63 192.36 43.96C192.36 44.59 192.29 45.63 192.29 46.33C192.29 47.03 192.36 48.03 192.36 48.66C192.36 49.03 192.29 49.18 192.14 49.18C191.99 49.18 191.88 49.03 191.84 48.66C191.77 47.81 190.99 46.96 189.47 46.96H184.81C184.51 46.96 184.48 47.07 184.48 47.26V50.18C184.48 52.36 184.96 52.85 187.59 52.85H190.03C193.36 52.85 194.95 51.92 195.95 49.74C196.1 49.37 196.51 49.48 196.43 49.85L195.69 52.26C195.17 54 194.95 54.11 193.25 54.11H186.74V54.09Z"
              fill="black"
            />
            <path
              d="M215.53 43.25C215.57 43.69 215.16 43.77 215.01 43.29C214.31 40.81 211.46 40.26 208.72 40.26C205.61 40.26 203.76 41 203.76 42.41C203.76 46.07 216.9 43.22 216.9 49.59C216.9 53.18 212.76 54.36 208.28 54.36C204.39 54.36 202.99 53.66 201.77 53.32C201.18 53.21 201.36 53.58 201.1 53.58C200.92 53.58 200.73 53.47 200.69 52.8L200.28 49.06C200.24 48.91 200.35 48.76 200.5 48.76C200.68 48.76 200.68 48.91 200.76 49.09C202.17 52.53 205.72 53.05 208.27 53.05C211.67 53.05 213.93 52.16 213.93 50.57C213.93 46.43 200.76 49.9 200.76 43.43C200.76 39.69 205.31 38.99 208.72 38.99C211.61 38.99 212.68 39.36 214.27 39.73C214.83 39.88 214.68 39.47 214.97 39.47C215.16 39.47 215.27 39.58 215.3 40.47L215.52 43.25H215.53Z"
              fill="black"
            />
          </g>
          <defs>
            <clipPath id="clip0_3105_1660">
              <rect width="227.81" height="54.35" fill="white" />
            </clipPath>
          </defs>
        </svg>